<?xml version="1.0" standalone="no"?>
<!DOCTYPE svg PUBLIC "-//W3C//DTD SVG 20010904//EN"
 "http://www.w3.org/TR/2001/REC-SVG-20010904/DTD/svg10.dtd">
<svg version="1.0" xmlns="http://www.w3.org/2000/svg"
 width="64.000000pt" height="64.000000pt" viewBox="0 0 64.000000 64.000000"
 preserveAspectRatio="xMidYMid meet">

<g transform="translate(0.000000,64.000000) scale(0.100000,-0.100000)"
fill="#000000" stroke="none">
<path d="M30 610 c-19 -19 -20 -33 -20 -290 0 -257 1 -271 20 -290 19 -19 33
-20 290 -20 257 0 271 1 290 20 19 19 20 33 20 290 0 257 -1 271 -20 290 -19
19 -33 20 -290 20 -257 0 -271 -1 -290 -20z m568 -12 c17 -17 17 -539 0 -556
-17 -17 -539 -17 -556 0 -17 17 -17 539 0 556 17 17 539 17 556 0z"/>
<path d="M193 473 c-118 -73 -123 -78 -123 -110 0 -37 7 -40 36 -18 10 8 22
15 27 15 4 0 7 -47 7 -105 l0 -105 -30 0 c-27 0 -30 -3 -30 -30 l0 -30 240 0
240 0 0 30 c0 27 -3 30 -30 30 l-30 0 0 105 c0 58 3 105 8 105 4 0 16 -7 26
-15 29 -22 36 -19 36 18 0 33 -5 37 -124 110 -67 43 -125 77 -127 77 -2 0 -59
-35 -126 -77z m243 -21 c59 -37 109 -73 112 -80 2 -7 -46 19 -107 58 -62 38
-116 70 -121 70 -5 0 -59 -32 -121 -70 -61 -39 -109 -65 -107 -58 5 14 206
146 225 147 7 1 60 -29 119 -67z m-166 -242 l0 -60 -30 0 -30 0 0 60 0 60 30
0 30 0 0 -60z m160 25 l0 -35 -50 0 -50 0 0 35 0 35 50 0 50 0 0 -35z m110
-115 c0 -6 -80 -10 -220 -10 -140 0 -220 4 -220 10 0 6 80 10 220 10 140 0
220 -4 220 -10z"/>
</g>
</svg>
