<?xml version="1.0" standalone="no"?>
<!DOCTYPE svg PUBLIC "-//W3C//DTD SVG 20010904//EN"
 "http://www.w3.org/TR/2001/REC-SVG-20010904/DTD/svg10.dtd">
<svg version="1.0" xmlns="http://www.w3.org/2000/svg"
 width="500.000000pt" height="500.000000pt" viewBox="0 0 500.000000 500.000000"
 preserveAspectRatio="xMidYMid meet">

<g transform="translate(0.000000,500.000000) scale(0.100000,-0.100000)"
fill="#000000" stroke="none">
<path d="M835 3438 c-29 -30 -59 -72 -66 -92 -7 -20 -18 -35 -24 -32 -31 12
-128 27 -141 22 -9 -3 -14 -15 -12 -28 3 -19 14 -25 73 -38 l70 -15 6 -71 c12
-127 59 -184 154 -184 39 0 51 5 89 40 24 22 49 54 56 71 25 58 43 22 61 -121
15 -122 41 -180 79 -180 9 0 37 13 63 30 l46 29 7 -37 c4 -20 13 -51 20 -67
15 -38 18 -141 5 -215 -5 -30 -9 -145 -7 -255 l2 -199 -45 -66 -46 -65 -3
-140 c-2 -113 -7 -148 -22 -182 -32 -69 -28 -86 30 -111 33 -15 70 -22 110
-22 60 0 60 0 60 29 0 24 -8 35 -45 58 -32 20 -46 36 -51 59 -8 43 12 135 46
214 16 36 32 79 36 95 4 17 15 42 25 56 30 43 59 130 77 234 l8 50 20 -34 c10
-18 34 -54 52 -80 57 -81 58 -85 39 -156 -20 -76 -21 -117 -4 -153 26 -52 37
-134 29 -205 -6 -46 -5 -70 2 -76 6 -5 68 -11 139 -15 111 -6 128 -4 134 10 9
23 -16 43 -99 79 l-73 32 3 179 c7 456 5 474 -67 575 -42 59 -60 104 -67 164
-3 21 -8 43 -10 47 -3 5 0 24 7 43 10 28 18 35 39 35 21 0 30 9 53 55 15 31
27 69 27 85 0 31 14 40 23 16 3 -8 26 -22 52 -31 38 -15 52 -16 84 -6 101 30
152 161 101 261 -46 91 -178 97 -239 11 -16 -22 -32 -30 -66 -35 -58 -9 -91 0
-74 20 6 8 17 14 25 14 7 0 16 9 19 21 12 36 14 193 3 207 -6 7 -35 12 -72 12
-54 0 -65 -3 -93 -31 -27 -24 -33 -38 -33 -70 0 -22 7 -54 16 -70 19 -38 12
-59 -20 -59 -52 0 -251 52 -272 72 -12 10 -25 18 -30 17 -5 -1 -19 -1 -31 0
-20 1 -23 6 -23 44 0 65 -26 139 -60 172 -23 22 -41 29 -85 33 l-56 5 -54 -55z
m443 -295 c80 -17 108 -33 57 -33 -14 0 -41 -6 -60 -14 -29 -12 -37 -23 -47
-60 -7 -25 -16 -46 -20 -46 -10 0 -58 95 -58 115 0 20 22 55 35 55 5 0 47 -8
93 -17z m378 -110 c24 -31 25 -37 13 -65 l-12 -30 -23 38 c-13 21 -30 42 -38
46 -9 5 -16 19 -16 32 0 34 43 23 76 -21z"/>
<path d="M2700 2905 c0 -8 9 -15 20 -15 18 0 20 -7 20 -65 0 -58 2 -65 20 -65
18 0 20 7 20 65 0 58 2 65 20 65 11 0 20 7 20 15 0 12 -13 15 -60 15 -47 0
-60 -3 -60 -15z"/>
<path d="M2840 2840 c0 -64 3 -80 15 -80 8 0 15 7 15 15 0 8 4 15 9 15 5 0 14
-7 21 -15 7 -8 21 -15 32 -15 17 0 18 3 8 15 -9 11 -8 19 4 37 37 53 4 108
-64 108 l-40 0 0 -80z m79 33 c12 -23 -4 -53 -29 -53 -16 0 -20 7 -20 35 0 28
4 35 20 35 10 0 23 -8 29 -17z"/>
<path d="M2980 2840 l0 -80 50 0 c38 0 50 4 50 15 0 10 -10 15 -30 15 -23 0
-30 4 -30 20 0 16 7 20 30 20 20 0 30 5 30 15 0 10 -10 15 -30 15 -20 0 -30 5
-30 15 0 9 9 15 25 15 16 0 25 6 25 15 0 11 -12 15 -45 15 l-45 0 0 -80z"/>
<path d="M3110 2841 c0 -65 3 -81 15 -81 11 0 15 12 15 46 l0 46 55 -47 55
-47 0 81 c0 64 -3 81 -14 81 -10 0 -16 -14 -18 -45 l-3 -45 -52 46 -53 46 0
-81z"/>
<path d="M3290 2840 l0 -80 45 0 c33 0 45 4 45 15 0 10 -10 15 -30 15 -23 0
-30 4 -30 20 0 16 7 20 30 20 20 0 30 5 30 15 0 10 -10 15 -30 15 -20 0 -30 5
-30 15 0 9 9 15 25 15 16 0 25 6 25 15 0 11 -11 15 -40 15 l-40 0 0 -80z"/>
<path d="M3410 2840 c0 -64 3 -80 15 -80 8 0 15 7 15 15 0 8 4 15 9 15 5 0 14
-7 21 -15 7 -8 21 -15 32 -15 17 0 18 3 8 15 -9 11 -8 19 4 37 37 53 4 108
-64 108 l-40 0 0 -80z m79 33 c12 -23 -4 -53 -29 -53 -16 0 -20 7 -20 35 0 28
4 35 20 35 10 0 23 -8 29 -17z"/>
<path d="M2130 2540 c0 -64 3 -80 15 -80 8 0 15 4 15 9 0 5 15 14 34 21 80 26
60 130 -26 130 l-38 0 0 -80z m78 21 c3 -15 -3 -30 -14 -38 -28 -21 -34 -16
-34 28 0 36 2 40 23 37 15 -2 23 -11 25 -27z"/>
<path d="M2270 2540 l0 -80 50 0 c38 0 50 4 50 15 0 10 -11 15 -35 15 -28 0
-35 4 -35 20 0 16 7 20 30 20 20 0 30 5 30 15 0 10 -10 15 -30 15 -20 0 -30 5
-30 15 0 9 9 15 25 15 16 0 25 6 25 15 0 11 -11 15 -40 15 l-40 0 0 -80z"/>
<path d="M2390 2540 c0 -73 2 -80 20 -80 11 0 20 7 20 15 0 8 5 15 10 15 6 0
13 -7 16 -15 4 -8 18 -15 32 -15 24 0 24 1 8 19 -15 16 -15 19 -1 31 8 7 15
27 15 46 0 41 -29 64 -82 64 l-38 0 0 -80z m83 29 c14 -22 2 -49 -23 -49 -16
0 -20 6 -20 36 0 28 4 35 16 32 9 -2 21 -10 27 -19z"/>
<path d="M2540 2600 c-16 -30 -4 -57 31 -69 36 -12 34 -36 -2 -36 -34 0 -31
-29 4 -33 36 -4 57 13 57 48 0 29 -14 46 -43 51 -25 5 -23 23 3 29 33 8 29 25
-7 28 -24 2 -34 -2 -43 -18z"/>
<path d="M2679 2601 c-18 -14 -24 -29 -24 -61 0 -32 6 -47 24 -61 69 -56 168
20 127 99 -24 47 -84 58 -127 23z m89 -23 c7 -7 12 -24 12 -38 0 -31 -17 -50
-45 -50 -28 0 -45 19 -45 50 0 31 17 50 45 50 12 0 26 -5 33 -12z"/>
<path d="M2840 2541 c0 -65 3 -81 15 -81 11 0 15 12 15 46 l0 45 28 -20 c15
-12 42 -33 60 -47 l32 -27 0 82 c0 74 -2 81 -20 81 -17 0 -20 -7 -20 -40 0
-37 -11 -52 -25 -31 -3 5 -23 24 -45 41 l-40 32 0 -81z"/>
<path d="M3043 2540 c-39 -72 -41 -80 -23 -80 11 0 20 5 20 10 0 6 20 10 45
10 25 0 45 -4 45 -10 0 -5 9 -10 20 -10 19 0 17 7 -20 80 -22 44 -41 80 -43
80 -1 0 -21 -36 -44 -80z m56 -7 c11 -21 9 -23 -13 -23 -24 0 -25 2 -14 25 6
14 12 24 13 23 1 -2 8 -13 14 -25z"/>
<path d="M3190 2540 l0 -80 45 0 c33 0 45 4 45 15 0 10 -10 15 -30 15 l-30 0
0 65 c0 51 -3 65 -15 65 -12 0 -15 -16 -15 -80z"/>
<path d="M3300 2541 c0 -65 3 -81 15 -81 11 0 15 12 15 46 l0 45 28 -20 c15
-12 42 -33 60 -47 l32 -27 0 82 c0 74 -2 81 -20 81 -17 0 -20 -7 -20 -40 0
-37 -11 -52 -25 -31 -3 5 -23 24 -45 41 l-40 32 0 -81z"/>
<path d="M3495 2565 c19 -30 35 -66 35 -80 0 -16 6 -25 15 -25 9 0 15 9 15 25
0 14 14 47 30 73 34 56 36 62 15 62 -8 0 -21 -13 -30 -29 -22 -44 -31 -45 -55
-6 -12 20 -30 35 -41 35 -17 0 -15 -6 16 -55z"/>
<path d="M3170 2240 c0 -64 3 -80 15 -80 8 0 15 4 15 9 0 5 12 12 28 16 39 10
62 34 62 67 0 41 -32 68 -80 68 l-40 0 0 -80z m80 35 c15 -19 4 -52 -20 -58
-25 -6 -30 0 -30 40 0 26 4 33 19 33 10 0 24 -7 31 -15z"/>
<path d="M3320 2240 c0 -64 3 -80 15 -80 8 0 15 7 15 15 0 8 4 15 9 15 5 0 14
-7 21 -15 7 -8 22 -15 33 -15 18 0 19 1 4 18 -14 15 -14 19 4 41 24 30 24 42
-2 75 -16 20 -29 26 -60 26 l-39 0 0 -80z m75 15 c0 -23 -5 -31 -22 -33 -20
-3 -23 1 -23 33 0 32 3 36 23 33 17 -2 22 -10 22 -33z"/>
<path d="M3488 2306 c-23 -17 -39 -61 -31 -83 22 -64 94 -83 138 -38 51 50 15
135 -57 135 -18 0 -41 -6 -50 -14z m80 -28 c7 -7 12 -24 12 -38 0 -31 -17 -50
-45 -50 -28 0 -45 19 -45 50 0 31 17 50 45 50 12 0 26 -5 33 -12z"/>
<path d="M2010 1766 c0 -73 15 -106 22 -48 4 37 31 35 39 -3 6 -29 7 -29 8 8
1 36 -5 42 -36 38 -8 -1 -13 11 -13 33 0 19 -4 38 -10 41 -6 4 -10 -22 -10
-69z"/>
<path d="M2520 1799 c0 -32 -3 -40 -15 -36 -7 3 -24 -2 -37 -13 -19 -15 -21
-22 -12 -37 6 -10 25 -19 43 -21 l31 -3 0 75 c0 42 -2 76 -5 76 -3 0 -5 -18
-5 -41z m-10 -68 c0 -11 -4 -22 -8 -25 -14 -9 -35 12 -29 28 9 23 37 20 37 -3z"/>
<path d="M1948 1787 c-6 -32 2 -97 13 -97 5 0 9 13 9 29 0 16 6 32 13 35 10 5
10 7 0 12 -7 3 -13 14 -13 25 0 27 -17 24 -22 -4z"/>
<path d="M2560 1789 c0 -5 5 -7 10 -4 6 3 10 8 10 11 0 2 -4 4 -10 4 -5 0 -10
-5 -10 -11z"/>
<path d="M2920 1789 c0 -5 5 -7 10 -4 6 3 10 8 10 11 0 2 -4 4 -10 4 -5 0 -10
-5 -10 -11z"/>
<path d="M2114 1749 c-14 -15 -16 -24 -8 -37 13 -20 54 -29 54 -12 0 6 -4 9
-9 5 -5 -3 -12 -1 -16 5 -3 5 -3 10 2 10 4 0 14 4 22 9 12 8 12 12 2 25 -17
21 -24 20 -47 -5z m31 -9 c-3 -5 -11 -10 -16 -10 -6 0 -7 5 -4 10 3 6 11 10
16 10 6 0 7 -4 4 -10z"/>
<path d="M2278 1763 c-15 -4 -18 -15 -17 -66 1 -34 4 -50 6 -34 3 20 10 27 27
27 28 0 51 24 43 44 -8 19 -38 34 -59 29z m39 -29 c6 -16 -15 -37 -29 -28 -4
3 -8 14 -8 25 0 23 28 26 37 3z"/>
<path d="M2375 1757 c-10 -8 -16 -23 -13 -38 2 -19 9 -24 33 -24 25 0 31 4 33
27 4 34 -26 54 -53 35z m38 -21 c8 -19 -15 -37 -32 -26 -17 10 -7 40 13 40 7
0 16 -6 19 -14z"/>
<path d="M2740 1760 c-8 -5 -18 -6 -22 -4 -4 3 -8 -12 -7 -33 l1 -38 9 33 c12
41 39 43 39 2 0 -38 18 -40 22 -3 2 17 10 29 21 31 13 3 17 -3 17 -27 0 -17 5
-31 10 -31 15 0 12 56 -3 68 -8 7 -18 7 -27 2 -8 -5 -21 -5 -30 0 -9 5 -22 5
-30 0z"/>
<path d="M2973 1763 c-18 -6 -16 -32 2 -39 8 -4 15 -10 15 -15 0 -4 -7 -6 -15
-3 -8 4 -15 1 -15 -5 0 -14 37 -14 45 0 4 5 -1 19 -10 29 -12 13 -13 19 -4 22
7 2 9 7 4 10 -6 3 -16 3 -22 1z"/>
<path d="M3194 1749 c-20 -23 -11 -51 20 -57 41 -8 63 48 27 68 -26 13 -25 13
-47 -11z m43 -15 c8 -20 -8 -36 -26 -25 -15 10 -8 41 9 41 6 0 13 -7 17 -16z"/>
<path d="M3460 1755 c-8 -10 -7 -17 5 -28 17 -17 20 -31 5 -22 -5 3 -10 1 -10
-4 0 -17 30 -13 37 5 4 10 -1 20 -13 27 -18 10 -18 10 1 17 16 6 16 7 2 13 -8
3 -21 0 -27 -8z"/>
<path d="M2560 1725 c0 -19 5 -35 10 -35 6 0 10 16 10 35 0 19 -4 35 -10 35
-5 0 -10 -16 -10 -35z"/>
<path d="M2600 1738 c0 -35 13 -47 48 -46 29 1 32 4 32 35 0 18 -4 33 -10 33
-5 0 -10 -11 -10 -24 0 -23 -22 -41 -34 -29 -3 4 -6 17 -6 30 0 13 -4 23 -10
23 -5 0 -10 -10 -10 -22z"/>
<path d="M2920 1725 c0 -19 5 -35 10 -35 6 0 10 16 10 35 0 19 -4 35 -10 35
-5 0 -10 -16 -10 -35z"/>
<path d="M3090 1755 c0 -4 7 -19 15 -36 12 -22 13 -34 4 -50 -6 -11 -8 -23 -5
-26 2 -3 19 22 35 56 17 34 27 61 23 61 -5 0 -14 -12 -21 -27 l-13 -28 -14 28
c-14 25 -24 35 -24 22z"/>
<path d="M3291 1728 c-1 -36 0 -37 34 -36 33 1 35 3 35 35 0 18 -4 33 -10 33
-5 0 -10 -11 -10 -25 0 -14 -4 -25 -10 -25 -5 0 -13 -1 -17 -2 -4 -2 -11 11
-14 27 -6 29 -7 29 -8 -7z"/>
<path d="M3390 1725 c0 -19 5 -35 10 -35 6 0 10 10 10 23 0 13 5 28 12 35 9 9
7 12 -10 12 -18 0 -22 -6 -22 -35z"/>
<path d="M2248 1613 c72 -2 192 -2 265 0 72 1 13 3 -133 3 -146 0 -205 -2
-132 -3z"/>
</g>
</svg>
