<?xml version="1.0" standalone="no"?>
<!DOCTYPE svg PUBLIC "-//W3C//DTD SVG 20010904//EN"
 "http://www.w3.org/TR/2001/REC-SVG-20010904/DTD/svg10.dtd">
<svg version="1.0" xmlns="http://www.w3.org/2000/svg"
 width="500.000000pt" height="500.000000pt" viewBox="0 0 500.000000 500.000000"
 preserveAspectRatio="xMidYMid meet">

<g transform="translate(0.000000,500.000000) scale(0.100000,-0.100000)"
fill="#000000" stroke="none">
<path d="M1 4943 c1 -52 4 -62 37 -98 l37 -40 -38 34 c-39 37 -53 25 -14 -12
13 -12 16 -16 7 -9 -9 6 -19 12 -23 12 -4 0 -7 -1021 -7 -2270 l0 -2269 242
-3 c134 -2 1211 -3 2393 -3 l2151 0 107 84 c93 73 122 101 102 101 -3 0 -46
-27 -95 -60 -49 -33 -92 -60 -95 -60 -3 0 -5 6 -5 13 0 6 45 37 100 67 l100
55 0 175 -1 175 -94 120 c-52 66 -95 125 -95 132 0 6 8 9 20 6 11 -3 20 -11
20 -18 0 -11 116 -183 141 -209 5 -6 9 835 9 2062 l0 2072 -2404 0 -2403 0
-24 -44 c-13 -25 -25 -43 -27 -41 -3 2 5 20 17 40 11 20 21 38 21 41 0 2 -29
4 -64 4 -42 0 -66 -4 -69 -12 -4 -10 -6 -10 -6 0 -1 6 -10 12 -21 12 -17 0
-19 -7 -19 -57z m56 -20 c-3 -10 -5 -2 -5 17 0 19 2 27 5 18 2 -10 2 -26 0
-35z m40 -20 c-2 -16 -4 -5 -4 22 0 28 2 40 4 28 2 -13 2 -35 0 -50z m218 37
c-3 -5 -14 -10 -23 -9 -14 0 -13 2 3 9 27 11 27 11 20 0z m-55 -25 c-7 -9 -15
-13 -19 -10 -3 3 1 10 9 15 21 14 24 12 10 -5z m-182 -52 c6 -20 10 -38 9 -39
-1 -2 -13 15 -25 37 -17 28 -19 39 -9 39 8 0 19 -17 25 -37z m252 16 c-19 -12
-43 -28 -52 -37 -10 -8 -18 -12 -18 -9 0 10 81 67 94 67 6 0 -5 -10 -24 -21z
m-119 -16 c-12 -20 -14 -14 -5 12 4 9 9 14 11 11 3 -2 0 -13 -6 -23z m168 14
c-16 -12 -79 -45 -79 -42 0 7 63 45 74 45 5 0 7 -1 5 -3z m56 -67 c-28 -4 -61
-10 -73 -14 -12 -4 -22 -5 -22 -1 0 12 47 24 95 23 l50 0 -50 -8z m-111 -18
c2 -4 -4 -14 -16 -21 -11 -7 -17 -8 -13 -2 3 6 0 11 -7 11 -9 0 -9 3 2 10 18
12 27 12 34 2z m121 -22 c18 -8 18 -9 -5 -9 -14 0 -34 4 -45 9 -18 8 -18 9 5
9 14 0 34 -4 45 -9z m-369 -35 c-8 -8 -20 -15 -27 -15 -7 0 -4 6 7 15 25 19
40 19 20 0z m211 9 c-3 -3 -12 -4 -19 -1 -8 3 -5 6 6 6 11 1 17 -2 13 -5z m78
-15 c-51 -10 -92 -10 -50 1 17 4 44 8 60 8 25 0 24 -2 -10 -9z m-148 -5 c-3
-3 -12 -4 -19 -1 -8 3 -5 6 6 6 11 1 17 -2 13 -5z m80 -40 c28 5 34 4 23 -3
-23 -16 -66 -13 -81 7 -13 15 -12 16 3 3 12 -9 30 -11 55 -7z m70 -10 c-3 -3
-12 -4 -19 -1 -8 3 -5 6 6 6 11 1 17 -2 13 -5z m78 -25 c5 -5 -6 -4 -25 2 -45
15 -54 24 -15 15 17 -4 34 -12 40 -17z m-180 1 c3 -6 -1 -7 -9 -4 -18 7 -21
14 -7 14 6 0 13 -4 16 -10z m-225 -24 c0 -2 -8 -10 -17 -17 -16 -13 -17 -12
-4 4 13 16 21 21 21 13z m241 -33 c13 -16 12 -17 -3 -4 -10 7 -18 15 -18 17 0
8 8 3 21 -13z m-124 -65 c-3 -8 -6 -5 -6 6 -1 11 2 17 5 13 3 -3 4 -12 1 -19z
m546 -62 c101 -43 124 -179 43 -253 -46 -43 -92 -50 -148 -25 -35 15 -50 30
-67 64 -26 55 -27 90 0 144 14 30 32 48 62 63 49 25 67 26 110 7z m1351 -86
c16 -47 41 -111 57 -142 l29 -58 -57 0 -58 0 -1 33 c-1 61 -8 68 -66 65 -60
-3 -70 -18 -44 -68 l14 -30 -44 0 -45 0 18 33 c9 17 37 81 63 142 37 90 50
110 70 116 14 3 28 3 31 0 3 -3 18 -44 33 -91z m352 90 c32 0 34 -2 34 -33 0
-47 -9 -51 -34 -14 -17 25 -29 32 -55 32 -40 0 -62 -25 -45 -52 6 -10 33 -29
61 -43 86 -43 108 -72 91 -123 -16 -44 -61 -62 -152 -59 -43 1 -80 3 -81 4 -1
2 1 23 4 48 l7 45 18 -33 c29 -56 104 -74 127 -31 15 29 -3 52 -74 93 -71 42
-93 71 -83 111 8 33 77 68 120 60 16 -3 44 -5 62 -5z m812 0 c18 0 22 -5 22
-33 0 -47 -10 -52 -29 -14 -48 97 -155 -13 -137 -142 9 -66 29 -91 72 -91 27
0 43 8 65 31 l29 31 0 -35 0 -34 -59 -6 c-120 -13 -191 40 -191 143 0 98 76
167 170 155 19 -3 45 -5 58 -5z m337 -22 c11 -52 84 -235 99 -247 11 -9 15 -2
20 35 8 62 7 139 -3 192 l-8 42 49 0 c48 0 48 0 41 -27 -11 -42 -8 -232 4
-244 15 -15 68 14 90 48 l18 27 6 -29 c15 -69 26 -65 -156 -65 l-165 0 0 28
c0 64 -8 72 -66 72 -54 0 -54 0 -54 -31 0 -17 5 -39 10 -50 10 -17 7 -19 -35
-19 l-45 0 15 24 c9 13 38 77 65 142 48 117 55 126 102 133 3 1 9 -14 13 -31z
m824 -58 c15 -47 41 -113 57 -147 l30 -63 -57 0 -58 0 -3 48 -3 47 -55 0 c-50
0 -55 -2 -58 -23 -2 -13 4 -34 12 -48 l16 -24 -45 0 c-25 0 -45 2 -45 4 0 2
11 23 24 47 13 24 40 88 61 141 37 94 50 110 88 104 5 -1 21 -40 36 -86z
m-3333 49 c-3 -17 -6 -38 -6 -46 0 -9 -10 -2 -25 16 -27 31 -91 59 -105 45 -4
-5 -10 -35 -13 -66 l-6 -58 28 0 c16 0 40 9 55 21 l26 20 0 -46 0 -46 -26 20
c-15 12 -40 21 -56 21 l-30 0 7 -52 c3 -29 9 -61 11 -70 5 -15 -2 -18 -43 -18
l-49 0 10 69 c6 44 6 97 0 145 l-10 76 119 0 120 0 -7 -31z m250 0 c-3 -17 -6
-38 -6 -46 0 -9 -10 -2 -25 16 -27 31 -91 59 -105 45 -4 -5 -10 -35 -14 -66
l-6 -58 29 0 c15 0 40 9 55 21 l26 20 0 -46 0 -46 -26 20 c-15 12 -40 21 -56
21 l-29 0 6 -57 c4 -32 11 -62 15 -67 14 -14 78 14 105 45 15 18 25 25 25 16
0 -8 3 -29 6 -46 l7 -31 -120 0 -119 0 10 69 c6 44 6 97 0 145 l-10 76 119 0
120 0 -7 -31z m220 15 c66 -31 70 -90 9 -126 -21 -12 -32 -25 -28 -31 3 -7 18
-30 33 -52 46 -69 46 -65 -14 -65 -53 0 -56 1 -56 25 0 38 -30 105 -47 105
-13 0 -15 -11 -11 -65 l6 -65 -42 0 -41 0 0 145 0 145 78 0 c52 0 91 -6 113
-16z m316 -24 c-4 -38 -22 -68 -22 -36 0 8 -11 28 -25 43 -39 44 -47 20 -43
-129 l4 -128 -41 0 -40 0 0 134 c0 74 -3 138 -7 142 -11 10 -37 -14 -58 -55
l-19 -36 -1 37 c0 20 -3 43 -6 52 -5 14 10 16 128 16 l134 0 -4 -40z m822 30
c41 -15 66 -47 66 -83 0 -53 -60 -97 -132 -97 l-31 0 5 -50 5 -50 -47 0 -47 0
9 48 c5 26 7 91 4 145 l-6 97 74 0 c41 0 86 -4 100 -10z m312 -21 c-3 -17 -6
-38 -6 -46 0 -9 -10 -2 -25 16 -27 31 -91 59 -105 45 -4 -5 -10 -35 -14 -66
l-6 -58 29 0 c15 0 40 9 55 21 l26 20 0 -46 0 -46 -26 20 c-15 12 -40 21 -56
21 l-29 0 6 -57 c4 -32 11 -62 15 -67 14 -14 78 14 105 45 15 18 25 25 25 16
0 -8 3 -29 6 -46 l7 -31 -120 0 -120 0 8 43 c4 23 8 69 8 102 0 33 -4 79 -8
103 l-8 42 120 0 120 0 -7 -31z m379 -133 c0 -176 -2 -184 -55 -206 -58 -24
-108 15 -64 51 13 10 20 10 45 -5 34 -20 69 -15 50 8 -7 8 -22 17 -34 20 -21
5 -22 9 -22 151 l0 145 40 0 40 0 0 -164z m658 122 c14 -24 49 -65 77 -93 l52
-50 -6 58 c-3 32 -13 72 -21 87 -20 38 -19 40 13 40 l27 0 0 -145 0 -145 -27
0 c-18 0 -31 8 -39 23 -6 12 -43 61 -82 110 -73 90 -87 95 -87 32 0 -30 19
-111 35 -147 6 -15 2 -18 -21 -18 l-29 0 0 145 0 145 42 0 c38 0 43 -3 66 -42z
m17 -1843 l0 -1475 -1485 0 -1485 0 0 1475 0 1475 1485 0 1485 0 0 -1475z
m331 -1075 l24 -21 -32 16 c-32 15 -42 25 -24 25 5 0 19 -9 32 -20z m296 -197
c-2 -21 -4 -6 -4 32 0 39 2 55 4 38 2 -18 2 -50 0 -70z m-65 -60 c21 -40 35
-58 40 -50 6 9 12 7 22 -6 12 -16 18 -17 38 -6 13 7 27 12 32 11 5 -2 20 7 35
20 20 18 22 18 10 3 -9 -11 -15 -28 -14 -37 2 -12 -6 -19 -27 -23 -19 -5 -28
-12 -24 -20 3 -8 0 -16 -7 -18 -8 -3 -6 -7 5 -12 16 -6 16 -9 -5 -25 -21 -18
-22 -18 -35 3 -10 19 -12 14 -8 -38 2 -33 1 -44 -2 -25 -5 32 -7 28 -18 -35
l-13 -70 5 80 c3 44 7 89 10 100 12 52 -25 -36 -41 -98 -10 -37 -20 -65 -22
-63 -3 3 2 29 11 60 13 43 14 60 5 80 -9 19 -16 23 -24 16 -7 -6 -21 -8 -31
-4 -14 4 -15 3 -6 -4 10 -7 7 -13 -13 -26 -15 -10 -45 -33 -68 -53 -23 -19
-16 -10 16 21 32 31 52 56 45 57 -7 0 7 10 32 22 52 26 54 40 8 48 l-33 6 34
2 c45 1 38 7 -61 48 -75 31 -78 35 -9 17 19 -6 22 -4 16 6 -5 8 13 2 40 -13
59 -33 65 -34 35 -2 -13 14 -20 25 -15 25 5 0 -2 11 -15 25 -13 14 -20 25 -17
25 4 0 21 -15 38 -32 26 -29 29 -30 18 -8 -6 14 -27 48 -46 75 -33 48 -33 49
-3 15 16 -19 45 -62 62 -97z m-247 87 c3 -5 1 -10 -4 -10 -6 0 -11 5 -11 10 0
6 2 10 4 10 3 0 8 -4 11 -10z m-38 -22 c-3 -8 -6 -5 -6 6 -1 11 2 17 5 13 3
-3 4 -12 1 -19z m225 -56 c7 -7 -12 1 -40 19 -29 17 -52 34 -52 36 0 7 81 -41
92 -55z m85 26 c-3 -8 -6 -5 -6 6 -1 11 2 17 5 13 3 -3 4 -12 1 -19z m85 0
c-7 -7 -12 -8 -12 -2 0 14 12 26 19 19 2 -3 -1 -11 -7 -17z m-75 -55 c-3 -10
-5 -4 -5 12 0 17 2 24 5 18 2 -7 2 -21 0 -30z m54 10 c-12 -20 -14 -14 -5 12
4 9 9 14 11 11 3 -2 0 -13 -6 -23z m-298 10 c-7 -2 -19 -2 -25 0 -7 3 -2 5 12
5 14 0 19 -2 13 -5z m377 4 c0 -2 -10 -12 -22 -23 l-23 -19 19 23 c18 21 26
27 26 19z m-625 -27 c-3 -5 -14 -10 -23 -10 -15 0 -15 2 -2 10 20 13 33 13 25
0z m368 -97 c-7 -2 -19 -2 -25 0 -7 3 -2 5 12 5 14 0 19 -2 13 -5z m-83 -19
c-25 -7 -49 -13 -55 -13 -18 1 59 27 80 28 11 0 0 -7 -25 -15z m-170 -29 c0
-5 -5 -3 -10 5 -5 8 -10 20 -10 25 0 6 5 3 10 -5 5 -8 10 -19 10 -25z m43 10
c-3 -9 -8 -14 -10 -11 -3 3 -2 9 2 15 9 16 15 13 8 -4z m287 -8 c0 -2 -17 -19
-37 -38 l-38 -34 34 38 c33 34 41 42 41 34z m-111 -11 c-2 -2 -15 -9 -29 -15
-24 -11 -24 -11 -6 3 16 13 49 24 35 12z m246 -28 l16 -33 -21 25 c-15 16 -20
19 -16 8 16 -47 16 -51 2 -26 -9 15 -13 34 -10 42 8 22 11 20 29 -16z m-143
-10 c-11 -18 -32 -54 -47 -80 -27 -48 -46 -67 -24 -25 24 46 81 137 86 137 2
0 -4 -15 -15 -32z m209 -40 c19 -34 2 -17 -30 30 -25 35 -26 40 -6 17 14 -16
30 -38 36 -47z m-3969 -2 c-3 -34 -1 -38 12 -27 8 7 18 26 21 42 5 20 13 29
26 29 26 0 24 -9 -13 -47 -21 -21 -27 -33 -17 -34 7 0 28 -22 46 -50 l31 -49
-34 0 c-22 0 -34 5 -34 14 0 8 -9 24 -21 37 l-20 24 6 -37 c6 -36 5 -38 -22
-38 l-28 0 2 87 c1 49 3 89 3 91 0 2 10 2 23 0 19 -3 22 -8 19 -42z m259 15
c32 -33 37 -67 14 -110 -16 -33 -33 -41 -80 -41 -43 0 -75 38 -75 89 1 82 84
119 141 62z m502 9 c34 -27 44 -78 23 -118 -17 -34 -33 -42 -81 -42 -72 0
-101 96 -46 151 35 34 68 37 104 9z m1377 0 c37 -37 21 -67 -55 -102 l-50 -22
37 -4 c20 -2 46 2 58 8 12 6 20 7 20 1 0 -5 3 -16 6 -25 5 -14 -4 -16 -65 -16
-89 0 -92 12 -20 82 53 52 60 81 21 86 -20 3 -23 0 -20 -25 2 -22 -1 -28 -17
-28 -30 0 -33 43 -3 54 37 15 67 12 88 -9z m162 0 c44 -34 43 -126 -2 -150
-61 -33 -120 6 -120 77 0 78 66 118 122 73z m118 6 c28 -35 -11 -93 -47 -70
-36 22 -23 84 17 84 10 0 23 -7 30 -14z m453 -14 c3 -16 18 -55 34 -88 l28
-59 3 83 3 82 29 0 c19 0 31 -6 34 -18 4 -10 22 -34 42 -53 l37 -34 -6 35 c-3
19 -8 43 -12 53 -5 12 -2 17 11 17 17 0 19 -9 19 -85 0 -103 -14 -111 -68 -37
-20 26 -45 56 -58 67 l-22 20 6 -50 c3 -27 9 -58 12 -67 6 -16 0 -18 -49 -18
-56 0 -56 0 -56 30 0 27 -3 30 -30 30 -34 0 -49 -22 -30 -45 11 -13 8 -15 -20
-15 -25 0 -30 3 -22 13 6 7 20 33 32 57 11 25 17 35 14 23 -4 -19 -1 -23 20
-23 14 0 26 6 26 13 -1 18 -29 65 -30 48 0 -8 -2 -12 -5 -9 -3 3 0 17 6 32 16
35 45 34 52 -2z m437 -4 c-1 -29 -2 -31 -14 -16 -7 10 -24 22 -38 27 -29 11
-38 0 -38 -45 0 -26 27 -33 48 -12 9 9 12 7 12 -10 0 -19 -4 -21 -30 -15 -26
5 -30 2 -30 -15 0 -54 21 -65 64 -31 l26 20 0 -21 c0 -13 4 -18 11 -14 7 4 9
35 7 83 -3 74 -2 76 21 76 23 0 24 -2 25 -99 2 -106 -5 -126 -49 -126 -30 0
-39 14 -20 30 12 10 18 10 30 0 9 -7 19 -10 22 -6 16 15 -26 26 -102 26 l-80
0 0 82 c0 93 1 94 93 97 41 1 42 0 42 -31z m130 2 c-2 -14 -5 -44 -5 -67 0
-28 -5 -43 -12 -43 -8 0 -13 13 -13 33 0 17 -3 49 -7 70 -6 37 -5 39 18 35 20
-2 23 -8 19 -28z m-3045 -33 c36 -46 40 -50 43 -29 2 13 -1 36 -7 53 -8 25 -7
29 7 29 15 0 17 -12 17 -85 0 -107 -12 -110 -80 -19 -33 43 -51 60 -53 50 -6
-26 -22 -7 -22 25 0 25 4 29 28 28 21 0 36 -12 67 -52z m109 45 c-6 -4 -16
-16 -22 -27 -11 -19 -11 -18 -12 8 0 21 5 27 23 27 12 0 17 -3 11 -8z m63 -77
c0 -83 -1 -85 -23 -85 -23 0 -24 2 -24 85 0 82 1 85 23 85 22 0 23 -3 24 -85z
m53 58 c0 -14 -1 -24 -3 -22 -1 2 -11 14 -21 27 -19 22 -19 22 2 22 17 0 22
-6 22 -27z m302 15 c-18 -18 -16 -88 2 -88 16 0 46 37 46 57 0 6 -7 19 -16 27
-14 15 -14 16 4 16 29 0 55 -35 48 -63 -6 -25 -43 -47 -78 -47 -17 0 -20 -4
-14 -30 5 -27 3 -30 -22 -30 l-27 0 0 85 0 85 35 0 c26 0 31 -3 22 -12z m153
-15 c-10 -18 -12 -46 -9 -85 5 -57 5 -58 -20 -58 -26 0 -26 1 -26 85 l0 85 34
0 c35 0 35 0 21 -27z m59 21 c9 -4 21 -15 27 -25 8 -15 5 -24 -15 -42 l-25
-24 25 -36 25 -37 -34 0 c-30 0 -35 4 -40 28 -3 15 -8 34 -12 43 -4 11 0 18
14 22 24 6 29 45 9 65 -13 13 -1 16 26 6z m92 -34 c-5 -35 -4 -40 13 -40 11 0
23 5 26 10 12 19 25 10 25 -17 0 -21 -3 -24 -12 -15 -7 7 -23 12 -36 12 -20 0
-23 -4 -18 -22 3 -13 6 -29 6 -35 0 -20 31 -15 57 9 13 12 23 17 23 11 0 -6 3
-18 6 -27 5 -14 -4 -16 -65 -16 l-71 0 0 85 0 85 26 0 c25 0 26 -2 20 -40z
m90 24 c-3 -9 -6 -21 -6 -27 0 -7 -5 -4 -11 6 -6 10 -20 22 -32 27 -18 7 -16
9 17 9 31 1 37 -2 32 -15z m74 5 c0 -7 10 -27 22 -47 20 -32 22 -33 35 -16 18
25 16 14 -8 -42 l-22 -48 -28 57 c-21 40 -33 55 -44 51 -11 -5 -15 1 -15 25 0
28 3 31 30 31 17 0 30 -5 30 -11z m127 -74 c0 -82 -1 -85 -23 -85 -21 0 -23 5
-26 68 -4 75 4 102 31 102 16 0 18 -10 18 -85z m68 0 c0 -84 0 -85 -25 -85
-25 0 -25 1 -25 85 0 84 0 85 25 85 25 0 25 -1 25 -85z m65 17 c0 -40 5 -73
12 -80 17 -17 45 -15 57 6 6 9 11 12 11 6 1 -34 -75 -47 -102 -16 -9 9 -19 47
-23 85 l-7 67 26 0 c25 0 26 -2 26 -68z m96 52 c-3 -9 -7 -37 -7 -62 l-1 -47
-8 51 c-4 29 -11 57 -14 63 -5 7 1 11 14 11 16 0 20 -4 16 -16z m89 -24 c10
-23 25 -45 33 -49 12 -7 12 -13 -3 -42 l-18 -33 -33 64 -33 65 -1 -42 c0 -23
4 -53 10 -67 8 -22 7 -26 -8 -26 -15 0 -17 11 -17 85 0 85 0 85 26 85 21 0 30
-8 44 -40z m115 -45 c0 -84 0 -85 -25 -85 -26 0 -26 1 -20 63 6 57 5 61 -9 43
-20 -25 -20 -18 -1 28 10 24 22 36 35 36 18 0 20 -7 20 -85z m684 77 c-6 -4
-16 -16 -22 -27 -11 -19 -11 -18 -12 8 0 21 5 27 23 27 12 0 17 -3 11 -8z m63
-77 c0 -83 -1 -85 -23 -85 -23 0 -24 2 -24 85 0 82 1 85 23 85 22 0 23 -3 24
-85z m53 58 c0 -14 -1 -24 -3 -22 -1 2 -11 14 -21 27 -19 22 -19 22 2 22 17 0
22 -6 22 -27z m406 -58 c0 -82 -1 -85 -23 -85 -22 0 -23 3 -23 85 0 82 1 85
23 85 22 0 23 -3 23 -85z m334 64 c0 -6 -4 -7 -10 -4 -5 3 -10 11 -10 16 0 6
5 7 10 4 6 -3 10 -11 10 -16z m-1025 -29 c-9 -16 -18 -30 -21 -30 -2 0 2 14
11 30 9 17 18 30 21 30 2 0 -2 -13 -11 -30z m1480 0 c9 -16 13 -30 11 -30 -3
0 -12 14 -21 30 -9 17 -13 30 -11 30 3 0 12 -13 21 -30z m-25 -25 c0 -5 -5 -3
-10 5 -5 8 -10 20 -10 25 0 6 5 3 10 -5 5 -8 10 -19 10 -25z m-63 -17 c-3 -7
-5 -2 -5 12 0 14 2 19 5 13 2 -7 2 -19 0 -25z m163 -10 c0 -26 -7 -22 -25 12
-16 30 -15 30 5 18 11 -7 20 -21 20 -30z m-1495 -2 c13 -19 14 -29 5 -45 -16
-31 -25 -26 -25 14 0 19 -4 35 -10 35 -5 0 -10 -16 -10 -35 0 -41 -19 -41 -23
0 -3 19 2 33 14 42 25 18 31 17 49 -11z m-2191 -54 c5 -8 0 -12 -13 -12 -22 0
-28 30 -14 67 6 15 8 12 13 -13 4 -17 10 -36 14 -42z m1030 0 c5 -8 0 -12 -13
-12 -22 0 -28 30 -14 67 6 15 8 12 13 -13 4 -17 10 -36 14 -42z m2576 33 c0
-5 -5 -3 -10 5 -5 8 -10 20 -10 25 0 6 5 3 10 -5 5 -8 10 -19 10 -25z m-1525
-15 c-9 -16 -18 -30 -21 -30 -2 0 2 14 11 30 9 17 18 30 21 30 2 0 -2 -13 -11
-30z m1392 -2 c-3 -7 -5 -2 -5 12 0 14 2 19 5 13 2 -7 2 -19 0 -25z m-269 -13
c-6 -14 -13 -23 -15 -21 -5 5 15 46 22 46 3 0 -1 -11 -7 -25z m-98 0 c0 -8 -9
-15 -20 -15 -20 0 -26 11 -13 23 12 13 33 7 33 -8z m725 -87 l30 -33 -40 35
c-22 19 -44 39 -50 44 -5 5 -1 4 10 -2 11 -6 33 -25 50 -44z m-132 -34 c121
-55 154 -73 109 -59 -21 6 -22 4 -18 -22 5 -26 5 -26 -5 3 -10 28 -23 36 -120
74 -60 24 -109 47 -109 52 0 15 20 8 143 -48z m-544 -8 c-6 -21 -12 -36 -14
-34 -3 2 0 21 6 42 6 21 12 36 14 34 3 -2 0 -21 -6 -42z m521 -125 l85 -8
-131 -2 c-136 -1 -194 5 -194 20 0 9 52 7 240 -10z m125 -76 c-11 -5 -322 -75
-330 -75 -3 0 -5 6 -5 14 0 10 33 18 118 31 64 9 133 21 152 25 36 8 83 11 65
5z m14 -49 c-12 -12 -233 -106 -237 -101 -11 11 16 25 118 64 98 37 129 47
119 37z m-379 -76 c0 -5 -4 -10 -10 -10 -5 0 -10 5 -10 10 0 6 5 10 10 10 6 0
10 -4 10 -10z m20 -66 c0 -9 -5 -14 -12 -12 -18 6 -21 28 -4 28 9 0 16 -7 16
-16z"/>
<path d="M634 4435 c-37 -57 -57 -178 -38 -229 8 -21 47 -20 67 2 45 49 69
198 38 235 -20 24 -48 21 -67 -8z"/>
<path d="M1931 4354 c-11 -31 -21 -58 -21 -60 0 -2 23 -4 50 -4 28 0 50 4 50
9 0 16 -38 98 -48 105 -5 3 -19 -19 -31 -50z"/>
<path d="M3452 4350 l-21 -60 49 0 c29 0 50 5 50 11 0 16 -42 109 -49 109 -4
0 -17 -27 -29 -60z"/>
<path d="M4261 4359 c-11 -29 -21 -56 -21 -60 0 -5 23 -9 51 -9 48 0 50 1 43
23 -8 26 -43 97 -48 97 -2 0 -13 -23 -25 -51z"/>
<path d="M1419 4444 c-7 -8 -14 -40 -17 -70 l-4 -54 29 0 c58 0 87 76 47 121
-21 23 -37 24 -55 3z"/>
<path d="M2576 4445 c-16 -17 -32 -115 -22 -141 8 -21 54 -11 79 18 21 25 22
86 1 116 -18 26 -37 28 -58 7z"/>
<path d="M1725 3566 c-122 -45 -137 -184 -25 -243 l43 -23 -61 0 -62 0 0 -34
c0 -49 37 -98 90 -118 52 -19 157 -23 215 -7 75 21 129 104 111 172 -9 37 -54
76 -105 91 -51 16 -51 17 34 19 47 2 60 6 63 19 6 32 -28 84 -70 108 -53 30
-173 38 -233 16z m177 -16 c47 -13 98 -56 98 -81 0 -28 -82 -27 -117 1 -42 33
-123 19 -123 -20 0 -17 44 -38 105 -50 125 -25 170 -72 146 -150 -22 -72 -97
-106 -214 -97 -76 7 -127 32 -145 72 -22 48 -17 55 42 55 45 0 54 -3 59 -20
11 -44 115 -49 141 -7 16 26 -10 42 -97 61 -40 9 -86 25 -104 36 -34 21 -54
69 -46 113 14 73 144 117 255 87z m-32 -101 c7 -11 9 -23 7 -26 -7 -7 -87 16
-87 26 0 29 65 29 80 0z m-22 -171 c43 -13 31 -28 -23 -28 -30 0 -45 5 -49 16
-13 35 -7 36 72 12z"/>
<path d="M2132 3377 c-100 -266 -100 -237 -3 -237 78 0 81 1 87 25 6 24 10 25
75 25 65 0 70 -2 79 -25 9 -24 13 -25 90 -25 44 0 80 3 80 8 0 4 -35 100 -77
215 l-78 207 -90 0 -90 0 -73 -193z m264 101 c15 -40 47 -124 70 -186 24 -63
44 -118 44 -123 0 -5 -26 -9 -58 -9 -55 0 -58 1 -69 30 -11 30 -12 30 -91 30
-80 0 -80 0 -91 -30 -9 -28 -13 -30 -65 -30 -31 0 -56 3 -56 7 0 4 32 92 71
195 l72 188 73 0 72 0 28 -72z"/>
<path d="M2282 3444 c-12 -23 -42 -123 -42 -141 0 -9 16 -13 55 -13 30 0 55 4
55 9 0 17 -42 146 -50 155 -4 4 -13 0 -18 -10z m37 -121 c1 -8 -11 -13 -28
-13 -29 0 -29 0 -19 38 6 20 13 41 16 46 5 10 30 -46 31 -71z"/>
<path d="M2570 3355 l0 -215 193 2 192 3 3 58 3 57 -111 0 -110 0 0 155 0 155
-85 0 -85 0 0 -215z m140 40 l0 -155 110 0 110 0 0 -40 0 -40 -165 0 -165 0 0
195 0 195 55 0 55 0 0 -155z"/>
<path d="M2990 3355 l0 -215 200 0 201 0 -3 58 -3 57 -117 3 c-110 2 -118 4
-118 22 0 19 7 20 100 20 l100 0 0 60 0 60 -100 0 c-82 0 -100 3 -100 15 0 12
19 15 115 15 l115 0 0 60 0 60 -195 0 -195 0 0 -215z m368 158 l-3 -38 -115
-3 -115 -3 3 -39 4 -40 100 0 99 0 -3 -32 -3 -33 -97 -3 -98 -3 0 -44 0 -45
115 0 115 0 0 -35 0 -35 -175 0 -175 0 0 195 0 195 176 0 175 0 -3 -37z"/>
<path d="M1702 3025 c-41 -19 -56 -32 -68 -62 -30 -72 0 -137 81 -174 l40 -19
-67 0 -68 0 0 -36 c0 -29 8 -44 38 -74 78 -78 261 -80 337 -4 80 80 44 195
-70 222 -25 6 -18 8 35 12 75 6 82 16 54 76 -38 81 -200 111 -312 59z m209 -6
c42 -14 89 -57 89 -81 0 -27 -90 -26 -115 2 -22 25 -86 27 -109 4 -34 -33 -13
-49 98 -75 47 -12 97 -29 110 -40 55 -43 37 -143 -34 -184 -28 -16 -52 -20
-120 -20 -98 1 -146 19 -173 64 -30 51 -24 61 37 61 46 0 56 -3 61 -20 7 -23
37 -33 90 -28 42 3 68 29 48 49 -6 6 -51 22 -99 34 -64 18 -95 32 -117 54 -58
58 -29 151 56 179 44 14 137 14 178 1z m-41 -100 c7 -11 9 -23 7 -26 -7 -7
-87 16 -87 26 0 29 65 29 80 0z m-12 -170 c35 -13 17 -29 -33 -29 -41 0 -55
10 -55 42 0 10 44 3 88 -13z"/>
<path d="M2127 2833 c-42 -115 -77 -211 -77 -215 0 -5 35 -8 78 -8 77 0 78 0
89 30 11 29 13 30 76 30 63 0 65 -1 76 -30 10 -30 10 -30 90 -30 45 0 81 3 81
8 0 4 -34 100 -77 215 l-77 207 -91 0 -90 0 -78 -207z m258 145 c44 -110 125
-329 125 -338 0 -6 -26 -10 -59 -10 -58 0 -60 1 -66 30 l-7 30 -83 0 -83 0
-11 -30 c-9 -28 -13 -30 -65 -30 -31 0 -56 4 -56 9 0 7 88 245 135 364 6 14
20 17 80 17 l73 0 17 -42z"/>
<path d="M2262 2856 c-12 -41 -22 -79 -22 -85 0 -7 22 -11 56 -11 l56 0 -7 32
c-13 56 -41 132 -52 135 -5 2 -19 -30 -31 -71z m52 -43 c7 -32 6 -33 -23 -33
-17 0 -31 1 -31 3 0 2 7 25 17 52 17 52 22 49 37 -22z"/>
<path d="M2570 2825 l0 -215 193 2 192 3 0 60 0 60 -111 3 -111 3 5 149 5 150
-87 0 -86 0 0 -215z m142 43 l3 -153 108 -3 107 -3 0 -39 0 -40 -165 0 -165 0
0 195 0 195 55 0 54 0 3 -152z"/>
<path d="M2990 2825 l0 -215 200 0 201 0 -3 58 -3 57 -117 3 c-110 2 -118 4
-118 22 0 19 7 20 100 20 l100 0 0 60 0 60 -100 0 c-82 0 -100 3 -100 15 0 12
19 15 115 15 l115 0 0 60 0 60 -195 0 -195 0 0 -215z m370 160 l0 -35 -113 0
c-63 0 -116 -2 -118 -4 -3 -3 -3 -23 -1 -45 l4 -41 100 0 99 0 -3 -32 -3 -33
-97 -3 -98 -3 0 -39 0 -39 118 -3 117 -3 0 -35 0 -35 -177 -3 -178 -2 0 195 0
195 175 0 175 0 0 -35z"/>
<path d="M1699 2497 c-107 -56 -99 -186 15 -237 l41 -19 -69 0 -69 -1 6 -41
c7 -50 44 -92 96 -108 53 -15 185 -14 224 3 73 30 111 112 84 179 -19 43 -65
70 -166 92 -47 11 -71 21 -71 31 0 23 67 18 82 -6 11 -17 24 -20 87 -20 l74 0
-7 32 c-16 82 -77 117 -202 118 -65 0 -89 -4 -125 -23z m248 -20 c33 -18 53
-44 53 -71 0 -25 -92 -22 -115 4 -24 27 -100 28 -114 2 -16 -30 3 -43 100 -68
75 -19 100 -30 122 -54 50 -55 24 -145 -51 -177 -50 -22 -187 -21 -230 1 -37
19 -72 62 -72 87 0 16 8 19 51 19 43 0 54 -4 71 -25 15 -20 29 -25 62 -25 23
0 51 6 62 14 34 26 6 49 -85 72 -91 24 -129 46 -150 89 -21 42 2 102 49 129
62 36 181 38 247 3z m-84 -258 c26 -15 11 -29 -32 -29 -39 0 -61 14 -61 38 0
11 9 13 37 7 21 -4 46 -11 56 -16z"/>
<path d="M2199 2493 c-81 -212 -149 -396 -149 -403 0 -6 36 -10 79 -10 l79 0
7 30 c7 30 7 30 75 30 67 0 68 -1 79 -30 10 -30 10 -30 90 -30 45 0 81 4 81 9
0 4 -35 102 -79 217 l-78 209 -87 3 -86 3 -11 -28z m168 -5 c5 -7 33 -76 63
-153 29 -77 61 -161 71 -187 l19 -48 -64 0 c-63 0 -65 0 -71 30 l-7 30 -83 0
-83 0 -11 -30 c-9 -28 -13 -30 -65 -30 -32 0 -56 4 -56 10 0 15 132 363 143
378 6 7 34 12 72 12 38 0 66 -5 72 -12z"/>
<path d="M2262 2328 c-12 -40 -22 -79 -22 -85 0 -9 18 -13 56 -13 l56 0 -7 32
c-13 57 -41 132 -52 135 -5 2 -20 -29 -31 -69z m52 -45 c7 -32 6 -33 -23 -33
-17 0 -31 1 -31 3 0 2 7 25 17 52 17 52 22 49 37 -22z"/>
<path d="M2575 2508 c-3 -8 -4 -106 -3 -218 l3 -205 188 -3 187 -2 0 65 0 65
-110 0 -109 0 -3 153 -3 152 -73 3 c-53 2 -74 -1 -77 -10z m133 -165 l3 -153
109 0 110 0 0 -45 0 -45 -165 0 -165 0 0 201 0 200 53 -3 52 -3 3 -152z"/>
<path d="M2990 2300 l0 -220 198 2 197 3 3 58 3 57 -121 0 c-113 0 -120 1
-120 20 0 19 7 20 100 20 l100 0 0 60 0 60 -100 0 c-82 0 -100 3 -100 15 0 12
19 15 115 15 l115 0 0 65 0 65 -195 0 -195 0 0 -220z m370 155 l0 -35 -113 0
c-63 0 -116 -2 -118 -5 -3 -2 -3 -20 -1 -40 l4 -35 99 0 99 0 0 -35 0 -34 -97
-3 -98 -3 -3 -42 -3 -43 121 0 121 0 -3 -37 -3 -38 -177 -3 -178 -2 0 195 0
195 175 0 175 0 0 -35z"/>
<path d="M1727 1996 c-75 -27 -107 -85 -84 -154 16 -48 61 -77 152 -97 111
-25 128 -64 27 -65 -36 0 -44 4 -54 25 -10 23 -17 25 -76 25 l-65 0 6 -36 c13
-78 67 -107 197 -107 109 -1 149 14 180 66 50 81 5 162 -100 186 -122 28 -130
31 -130 50 0 35 70 43 97 11 14 -16 30 -20 80 -20 55 0 63 2 63 19 0 29 -39
72 -84 92 -49 22 -153 24 -209 5z"/>
<path d="M2140 1808 c-40 -106 -75 -199 -78 -206 -3 -10 12 -12 69 -10 69 3
74 4 79 28 5 23 10 25 79 28 l72 3 12 -31 c11 -30 12 -30 84 -30 40 0 73 2 73
5 0 4 -110 296 -145 388 -6 14 -20 17 -90 17 l-82 0 -73 -192z m189 -50 c1
-14 -7 -18 -39 -18 -22 0 -40 4 -40 8 0 4 10 37 22 73 l22 64 17 -55 c10 -30
18 -63 18 -72z"/>
<path d="M2580 1795 l0 -205 181 0 180 0 -3 53 -3 52 -107 3 -108 3 0 149 0
150 -70 0 -70 0 0 -205z"/>
<path d="M3000 1795 l0 -205 190 0 190 0 0 50 0 50 -120 0 -120 0 0 30 0 30
100 0 100 0 0 50 0 50 -100 0 -100 0 0 25 0 25 120 0 120 0 0 50 0 50 -190 0
-190 0 0 -205z"/>
<path d="M4491 1226 c2 -2 15 -9 29 -15 24 -11 24 -11 6 3 -16 13 -49 24 -35
12z"/>
<path d="M987 1003 c-18 -36 -29 -96 -21 -117 11 -27 41 -18 58 18 37 79 1
175 -37 99z"/>
<path d="M1497 1003 c-18 -36 -29 -96 -21 -117 11 -27 41 -18 58 18 37 79 1
175 -37 99z"/>
<path d="M3044 1005 c-9 -14 -17 -48 -18 -77 -1 -43 2 -53 17 -56 31 -6 60 93
41 142 -9 23 -21 20 -40 -9z"/>
<path d="M3180 995 c0 -19 4 -35 9 -35 13 0 23 34 15 54 -11 28 -24 18 -24
-19z"/>
<path d="M4960 407 c-19 -18 -56 -50 -82 -71 -27 -21 -48 -42 -48 -47 0 -5 16
-9 36 -9 31 0 43 8 85 53 33 36 49 61 49 80 0 15 -1 27 -2 27 -2 0 -19 -15
-38 -33z"/>
<path d="M4960 328 c-25 -35 -28 -44 -15 -46 9 -2 22 1 30 8 10 8 14 8 18 -2
2 -7 5 8 5 35 1 26 0 47 -2 47 -3 0 -18 -19 -36 -42z"/>
<path d="M1707 152 c6 -4 13 -25 16 -47 l4 -40 1 42 c1 23 8 44 15 46 6 3 -1
6 -18 6 -17 0 -25 -3 -18 -7z"/>
<path d="M1771 113 c1 -26 3 -40 6 -30 6 21 22 22 37 2 9 -12 11 -6 11 27 0
39 -2 43 -27 46 -27 3 -28 2 -27 -45z m44 17 c0 -8 -8 -16 -17 -18 -13 -2 -18
3 -18 18 0 15 5 20 18 18 9 -2 17 -10 17 -18z"/>
<path d="M1850 115 c0 -43 1 -45 28 -44 23 2 24 2 5 6 -27 5 -30 20 -5 26 16
4 16 5 0 6 -27 2 -23 39 5 44 19 4 18 4 -5 6 -27 1 -28 -1 -28 -44z"/>
<path d="M1922 113 c1 -35 2 -40 5 -16 l4 32 29 -32 29 -32 1 48 c0 30 -4 46
-10 42 -5 -3 -10 -16 -10 -28 -1 -21 -2 -21 -25 6 l-25 28 2 -48z"/>
<path d="M2010 115 c0 -43 1 -45 28 -44 23 2 24 2 5 6 -27 5 -30 20 -5 26 16
4 16 5 0 6 -27 2 -23 39 5 44 19 4 18 4 -5 6 -27 1 -28 -1 -28 -44z"/>
<path d="M2081 113 c1 -27 3 -40 6 -30 2 9 8 17 13 17 5 0 14 -8 20 -17 7 -12
10 -13 7 -3 -2 8 0 23 5 33 11 22 -6 47 -33 47 -16 0 -19 -7 -18 -47z m44 17
c0 -8 -8 -16 -17 -18 -13 -2 -18 3 -18 18 0 15 5 20 18 18 9 -2 17 -10 17 -18z"/>
<path d="M2201 113 c1 -27 3 -40 6 -30 2 9 13 17 23 17 22 0 34 28 19 46 -6 8
-20 14 -30 14 -16 0 -19 -7 -18 -47z m44 17 c0 -8 -8 -16 -17 -18 -13 -2 -18
3 -18 18 0 15 5 20 18 18 9 -2 17 -10 17 -18z"/>
<path d="M2280 115 c0 -40 2 -45 23 -44 16 1 18 2 5 6 -10 2 -18 8 -18 13 0 5
8 11 18 13 16 4 16 5 0 6 -11 1 -18 9 -18 20 0 11 8 22 18 24 13 4 11 5 -5 6
-21 1 -23 -4 -23 -44z"/>
<path d="M2341 113 c1 -26 3 -40 6 -30 6 22 22 22 38 1 10 -14 12 -10 11 27
-1 40 -3 44 -28 47 -27 3 -28 2 -27 -45z m47 14 c2 -12 -3 -17 -17 -17 -15 0
-21 6 -21 21 0 25 33 22 38 -4z"/>
<path d="M2424 148 c-4 -6 2 -19 14 -29 28 -22 28 -36 0 -42 -21 -4 -20 -4 3
-6 38 -2 44 24 11 48 l-27 20 25 10 c24 9 24 10 3 10 -12 1 -25 -4 -29 -11z"/>
<path d="M2499 139 c-16 -30 3 -69 34 -69 29 0 47 17 47 45 0 45 -60 63 -81
24z m66 -24 c0 -25 -4 -30 -24 -30 -32 0 -49 28 -31 50 7 9 23 15 34 13 16 -2
21 -10 21 -33z"/>
<path d="M2602 115 c1 -45 1 -46 7 -16 l6 35 28 -33 27 -33 -2 49 c-1 35 -2
40 -5 16 l-4 -32 -29 32 -29 32 1 -50z"/>
<path d="M2702 118 c-2 -44 0 -48 21 -47 16 1 17 3 5 6 -12 3 -18 17 -21 46
l-4 42 -1 -47z"/>
<path d="M2766 121 c-11 -23 -16 -44 -13 -48 4 -3 7 -1 7 5 0 7 11 12 25 12
14 0 25 -5 25 -12 0 -6 2 -9 5 -6 3 3 -3 24 -13 48 l-18 42 -18 -41z m23 -20
c-15 -5 -22 6 -14 19 6 9 10 9 16 -1 5 -8 4 -15 -2 -18z"/>
<path d="M2842 115 c1 -38 2 -42 5 -16 l4 34 29 -34 29 -34 -1 50 c-1 45 -1
46 -7 15 l-6 -35 -27 35 -28 35 2 -50z"/>
<path d="M2930 153 c0 -6 5 -15 10 -18 6 -3 10 -21 11 -38 l1 -32 9 32 c5 18
14 35 19 38 6 3 10 12 10 18 0 7 -7 3 -15 -7 -15 -20 -15 -20 -30 0 -8 10 -15
14 -15 7z"/>
<path d="M3051 113 c1 -26 3 -40 6 -31 2 9 14 18 26 20 16 2 22 10 22 28 0 20
-6 26 -27 28 -27 3 -28 2 -27 -45z m44 17 c0 -8 -8 -16 -17 -18 -13 -2 -18 3
-18 18 0 15 5 20 18 18 9 -2 17 -10 17 -18z"/>
<path d="M3131 113 c1 -26 3 -40 6 -30 6 21 22 22 37 2 9 -12 11 -6 11 27 0
39 -2 43 -27 46 -27 3 -28 2 -27 -45z m44 17 c0 -8 -8 -16 -17 -18 -13 -2 -18
3 -18 18 0 15 5 20 18 18 9 -2 17 -10 17 -18z"/>
<path d="M3222 148 c-27 -27 -7 -78 29 -78 21 0 49 26 49 45 0 35 -53 58 -78
33z m59 -14 c17 -21 0 -49 -32 -49 -24 0 -36 23 -25 51 7 19 40 18 57 -2z"/>
</g>
</svg>
